<?xml version="1.0" encoding="UTF-8"?>
<svg id="Capa_2" data-name="Capa 2" xmlns="http://www.w3.org/2000/svg" viewBox="0 0 17.14 17.14">
  <defs>
    <style>
      .cls-1 {
        fill: #fff;
      }
    </style>
  </defs>
  <g id="ELEMENTS">
    <g>
      <path class="cls-1" d="M13.11,3.06c-.55,0-1,.45-1,1.01s.45,1.01,1,1.01,1.01-.45,1.01-1.01-.45-1.01-1.01-1.01Z"/>
      <path class="cls-1" d="M8.64,4.35c-2.33,0-4.22,1.89-4.22,4.22s1.89,4.22,4.22,4.22,4.22-1.89,4.22-4.22-1.89-4.22-4.22-4.22Zm0,6.93c-1.49,0-2.7-1.21-2.7-2.7s1.21-2.7,2.7-2.7,2.7,1.21,2.7,2.7-1.21,2.7-2.7,2.7Z"/>
      <path class="cls-1" d="M11.99,17.14H5.15c-2.84,0-5.15-2.31-5.15-5.15V5.15C0,2.31,2.31,0,5.15,0h6.84c2.84,0,5.15,2.31,5.15,5.15v6.84c0,2.84-2.31,5.15-5.15,5.15ZM5.15,1.61c-1.95,0-3.54,1.59-3.54,3.54v6.84c0,1.95,1.59,3.54,3.54,3.54h6.84c1.95,0,3.54-1.59,3.54-3.54V5.15c0-1.95-1.59-3.54-3.54-3.54H5.15Z"/>
    </g>
  </g>
</svg>